<mxfile host="Electron" modified="2024-07-16T14:56:47.920Z" agent="Mozilla/5.0 (X11; Linux x86_64) AppleWebKit/537.36 (KHTML, like Gecko) draw.io/24.5.3 Chrome/124.0.6367.207 Electron/30.0.6 Safari/537.36" etag="Yv4g2sg1LJmfAEzUJf4d" version="24.5.3" type="device">
  <diagram name="Page-1" id="M6bQeJb24yhNywZkbo_B">
    <mxGraphModel dx="1434" dy="969" grid="1" gridSize="10" guides="1" tooltips="1" connect="1" arrows="1" fold="1" page="1" pageScale="1" pageWidth="850" pageHeight="1100" math="0" shadow="0">
      <root>
        <mxCell id="0" />
        <mxCell id="1" parent="0" />
        <mxCell id="NGC--UisRPbAq9CFyaaf-1" value="Security" style="ellipse;whiteSpace=wrap;html=1;fillColor=#dae8fc;strokeColor=#6c8ebf;" parent="1" vertex="1">
          <mxGeometry x="305" y="80" width="120" height="80" as="geometry" />
        </mxCell>
        <mxCell id="NGC--UisRPbAq9CFyaaf-19" style="edgeStyle=orthogonalEdgeStyle;rounded=0;orthogonalLoop=1;jettySize=auto;html=1;entryX=0;entryY=1;entryDx=0;entryDy=0;" parent="1" source="NGC--UisRPbAq9CFyaaf-2" target="NGC--UisRPbAq9CFyaaf-1" edge="1">
          <mxGeometry relative="1" as="geometry" />
        </mxCell>
        <mxCell id="NGC--UisRPbAq9CFyaaf-2" value="Access Management" style="ellipse;whiteSpace=wrap;html=1;" parent="1" vertex="1">
          <mxGeometry x="230" y="190" width="120" height="80" as="geometry" />
        </mxCell>
        <mxCell id="NGC--UisRPbAq9CFyaaf-6" style="edgeStyle=orthogonalEdgeStyle;rounded=0;orthogonalLoop=1;jettySize=auto;html=1;entryX=0.5;entryY=1;entryDx=0;entryDy=0;" parent="1" source="NGC--UisRPbAq9CFyaaf-3" target="NGC--UisRPbAq9CFyaaf-2" edge="1">
          <mxGeometry relative="1" as="geometry" />
        </mxCell>
        <mxCell id="NGC--UisRPbAq9CFyaaf-3" value="Access Policy" style="ellipse;whiteSpace=wrap;html=1;" parent="1" vertex="1">
          <mxGeometry x="230" y="300" width="120" height="80" as="geometry" />
        </mxCell>
        <mxCell id="NGC--UisRPbAq9CFyaaf-7" style="edgeStyle=orthogonalEdgeStyle;rounded=0;orthogonalLoop=1;jettySize=auto;html=1;entryX=0.5;entryY=1;entryDx=0;entryDy=0;" parent="1" source="NGC--UisRPbAq9CFyaaf-4" target="NGC--UisRPbAq9CFyaaf-3" edge="1">
          <mxGeometry relative="1" as="geometry" />
        </mxCell>
        <mxCell id="NGC--UisRPbAq9CFyaaf-4" value="Admin Role" style="ellipse;whiteSpace=wrap;html=1;" parent="1" vertex="1">
          <mxGeometry x="230" y="410" width="120" height="80" as="geometry" />
        </mxCell>
        <mxCell id="NGC--UisRPbAq9CFyaaf-18" style="edgeStyle=orthogonalEdgeStyle;rounded=0;orthogonalLoop=1;jettySize=auto;html=1;entryX=0;entryY=0.5;entryDx=0;entryDy=0;" parent="1" source="NGC--UisRPbAq9CFyaaf-8" target="NGC--UisRPbAq9CFyaaf-1" edge="1">
          <mxGeometry relative="1" as="geometry">
            <Array as="points">
              <mxPoint x="140" y="120" />
            </Array>
          </mxGeometry>
        </mxCell>
        <mxCell id="NGC--UisRPbAq9CFyaaf-8" value="Data Backups" style="ellipse;whiteSpace=wrap;html=1;" parent="1" vertex="1">
          <mxGeometry x="80" y="190" width="120" height="80" as="geometry" />
        </mxCell>
        <mxCell id="NGC--UisRPbAq9CFyaaf-20" style="edgeStyle=orthogonalEdgeStyle;rounded=0;orthogonalLoop=1;jettySize=auto;html=1;entryX=1;entryY=1;entryDx=0;entryDy=0;" parent="1" source="NGC--UisRPbAq9CFyaaf-9" target="NGC--UisRPbAq9CFyaaf-1" edge="1">
          <mxGeometry relative="1" as="geometry">
            <Array as="points">
              <mxPoint x="550" y="180" />
              <mxPoint x="407" y="180" />
            </Array>
          </mxGeometry>
        </mxCell>
        <mxCell id="NGC--UisRPbAq9CFyaaf-9" value="Authentication" style="ellipse;whiteSpace=wrap;html=1;" parent="1" vertex="1">
          <mxGeometry x="490" y="190" width="120" height="80" as="geometry" />
        </mxCell>
        <mxCell id="NGC--UisRPbAq9CFyaaf-21" style="edgeStyle=orthogonalEdgeStyle;rounded=0;orthogonalLoop=1;jettySize=auto;html=1;entryX=0;entryY=0.5;entryDx=0;entryDy=0;" parent="1" source="NGC--UisRPbAq9CFyaaf-10" target="NGC--UisRPbAq9CFyaaf-9" edge="1">
          <mxGeometry relative="1" as="geometry" />
        </mxCell>
        <mxCell id="NGC--UisRPbAq9CFyaaf-10" value="OAuth2" style="ellipse;whiteSpace=wrap;html=1;" parent="1" vertex="1">
          <mxGeometry x="400" y="310" width="90" height="70" as="geometry" />
        </mxCell>
        <mxCell id="NGC--UisRPbAq9CFyaaf-22" style="edgeStyle=orthogonalEdgeStyle;rounded=0;orthogonalLoop=1;jettySize=auto;html=1;entryX=0.5;entryY=1;entryDx=0;entryDy=0;" parent="1" source="NGC--UisRPbAq9CFyaaf-11" target="NGC--UisRPbAq9CFyaaf-9" edge="1">
          <mxGeometry relative="1" as="geometry" />
        </mxCell>
        <mxCell id="NGC--UisRPbAq9CFyaaf-11" value="API Key" style="ellipse;whiteSpace=wrap;html=1;" parent="1" vertex="1">
          <mxGeometry x="510" y="300" width="80" height="80" as="geometry" />
        </mxCell>
        <mxCell id="NGC--UisRPbAq9CFyaaf-25" style="edgeStyle=orthogonalEdgeStyle;rounded=0;orthogonalLoop=1;jettySize=auto;html=1;entryX=0;entryY=1;entryDx=0;entryDy=0;" parent="1" source="NGC--UisRPbAq9CFyaaf-12" target="NGC--UisRPbAq9CFyaaf-10" edge="1">
          <mxGeometry relative="1" as="geometry" />
        </mxCell>
        <mxCell id="NGC--UisRPbAq9CFyaaf-12" value="Implicit Flow" style="ellipse;whiteSpace=wrap;html=1;" parent="1" vertex="1">
          <mxGeometry x="368" y="420" width="90" height="80" as="geometry" />
        </mxCell>
        <mxCell id="NGC--UisRPbAq9CFyaaf-24" style="edgeStyle=orthogonalEdgeStyle;rounded=0;orthogonalLoop=1;jettySize=auto;html=1;entryX=1;entryY=1;entryDx=0;entryDy=0;" parent="1" source="NGC--UisRPbAq9CFyaaf-13" target="NGC--UisRPbAq9CFyaaf-10" edge="1">
          <mxGeometry relative="1" as="geometry" />
        </mxCell>
        <mxCell id="NGC--UisRPbAq9CFyaaf-13" value="Authentication Details" style="ellipse;whiteSpace=wrap;html=1;" parent="1" vertex="1">
          <mxGeometry x="490" y="410" width="105" height="80" as="geometry" />
        </mxCell>
        <mxCell id="NGC--UisRPbAq9CFyaaf-23" style="edgeStyle=orthogonalEdgeStyle;rounded=0;orthogonalLoop=1;jettySize=auto;html=1;entryX=1;entryY=0.5;entryDx=0;entryDy=0;exitX=0.5;exitY=0;exitDx=0;exitDy=0;" parent="1" source="NGC--UisRPbAq9CFyaaf-14" target="NGC--UisRPbAq9CFyaaf-9" edge="1">
          <mxGeometry relative="1" as="geometry" />
        </mxCell>
        <mxCell id="NGC--UisRPbAq9CFyaaf-14" value="Digital Signature" style="ellipse;whiteSpace=wrap;html=1;" parent="1" vertex="1">
          <mxGeometry x="610" y="305" width="90" height="80" as="geometry" />
        </mxCell>
        <mxCell id="NGC--UisRPbAq9CFyaaf-26" style="edgeStyle=orthogonalEdgeStyle;rounded=0;orthogonalLoop=1;jettySize=auto;html=1;entryX=0;entryY=1;entryDx=0;entryDy=0;" parent="1" source="NGC--UisRPbAq9CFyaaf-15" target="NGC--UisRPbAq9CFyaaf-13" edge="1">
          <mxGeometry relative="1" as="geometry" />
        </mxCell>
        <mxCell id="NGC--UisRPbAq9CFyaaf-15" value="Client ID" style="ellipse;whiteSpace=wrap;html=1;" parent="1" vertex="1">
          <mxGeometry x="420" y="520" width="105" height="80" as="geometry" />
        </mxCell>
        <mxCell id="NGC--UisRPbAq9CFyaaf-27" style="edgeStyle=orthogonalEdgeStyle;rounded=0;orthogonalLoop=1;jettySize=auto;html=1;entryX=1;entryY=1;entryDx=0;entryDy=0;" parent="1" source="NGC--UisRPbAq9CFyaaf-16" target="NGC--UisRPbAq9CFyaaf-13" edge="1">
          <mxGeometry relative="1" as="geometry" />
        </mxCell>
        <mxCell id="NGC--UisRPbAq9CFyaaf-16" value="Client Secret" style="ellipse;whiteSpace=wrap;html=1;" parent="1" vertex="1">
          <mxGeometry x="550" y="520" width="105" height="80" as="geometry" />
        </mxCell>
        <mxCell id="NGC--UisRPbAq9CFyaaf-28" style="edgeStyle=orthogonalEdgeStyle;rounded=0;orthogonalLoop=1;jettySize=auto;html=1;entryX=1;entryY=0.5;entryDx=0;entryDy=0;exitX=0.5;exitY=0;exitDx=0;exitDy=0;" parent="1" source="NGC--UisRPbAq9CFyaaf-17" target="NGC--UisRPbAq9CFyaaf-13" edge="1">
          <mxGeometry relative="1" as="geometry">
            <Array as="points">
              <mxPoint x="723" y="450" />
            </Array>
          </mxGeometry>
        </mxCell>
        <mxCell id="NGC--UisRPbAq9CFyaaf-17" value="Organization Identifier" style="ellipse;whiteSpace=wrap;html=1;" parent="1" vertex="1">
          <mxGeometry x="670" y="510" width="105" height="80" as="geometry" />
        </mxCell>
        <mxCell id="NGC--UisRPbAq9CFyaaf-30" style="edgeStyle=orthogonalEdgeStyle;rounded=0;orthogonalLoop=1;jettySize=auto;html=1;entryX=0.5;entryY=1;entryDx=0;entryDy=0;" parent="1" source="NGC--UisRPbAq9CFyaaf-29" target="NGC--UisRPbAq9CFyaaf-16" edge="1">
          <mxGeometry relative="1" as="geometry" />
        </mxCell>
        <mxCell id="NGC--UisRPbAq9CFyaaf-29" value="Secret Key" style="ellipse;whiteSpace=wrap;html=1;" parent="1" vertex="1">
          <mxGeometry x="550" y="630" width="105" height="80" as="geometry" />
        </mxCell>
      </root>
    </mxGraphModel>
  </diagram>
</mxfile>
